<svg width="10" height="10" viewBox="0 0 26 26" fill="none" xmlns="http://www.w3.org/2000/svg">
<path d="M24.9706 5.73683L13.1656 0.0378574C13.0609 -0.0126191 12.939 -0.0126191 12.8344 0.0378574L1.02935 5.73683C0.897724 5.80036 0.814087 5.93366 0.814087 6.07981V19.9202C0.814087 20.0663 0.897724 20.1996 1.02935 20.2632L12.8344 25.9621C12.8867 25.9874 12.9433 26 13 26C13.0566 26 13.1132 25.9874 13.1656 25.9621L24.9706 20.2632C25.1022 20.1996 25.1858 20.0663 25.1858 19.9202V6.07986C25.1858 5.93361 25.1021 5.80041 24.9706 5.73683ZM13 0.803791L23.929 6.07981L20.7609 7.60924C20.7408 7.59396 20.7196 7.57984 20.6964 7.56862L9.84162 2.3285L13 0.803791ZM8.98149 2.75912L19.8946 8.02747L17.6594 9.10653L6.75087 3.84031L8.98149 2.75912ZM20.1499 8.74999V12.7387L18.0621 13.7466V9.7579L20.1499 8.74999ZM24.4241 19.6812L13.3808 25.0123V12.0178L16.015 10.7462C16.2044 10.6547 16.2838 10.427 16.1924 10.2376C16.1009 10.0482 15.8733 9.96869 15.6838 10.0602L13 11.3559L11.9439 10.846C11.7545 10.7545 11.5268 10.834 11.4353 11.0234C11.3439 11.2128 11.4233 11.4405 11.6127 11.532L12.6191 12.0178V25.0123L1.57581 19.6811V6.6866L9.98518 10.7463C10.0386 10.7721 10.095 10.7843 10.1505 10.7843C10.2921 10.7843 10.428 10.705 10.4937 10.5689C10.5852 10.3795 10.5057 10.1518 10.3163 10.0603L2.07097 6.07981L5.85443 4.25331L17.2951 9.77643C17.2968 9.77877 17.2987 9.78085 17.3004 9.78313V14.3534C17.3004 14.4845 17.3678 14.6063 17.4788 14.676C17.5405 14.7147 17.6108 14.7343 17.6813 14.7343C17.7378 14.7343 17.7944 14.7217 17.8469 14.6964L20.6964 13.3208C20.828 13.2572 20.9116 13.124 20.9116 12.9778V8.38233L24.4241 6.68665V19.6812Z" fill="#2ECCB9"/>
</svg>
